<?xml version="1.0" encoding="UTF-8"?>
<svg version="1.1" xmlns="http://www.w3.org/2000/svg" width="502" height="129">
<path d="M0 0 C3.6135304 3.14253605 5.10296515 6.09415544 6.75 10.5625 C7.17796875 11.69816406 7.6059375 12.83382813 8.046875 14.00390625 C9 17 9 17 9 20 C8.21753906 20.33773438 7.43507813 20.67546875 6.62890625 21.0234375 C5.61699219 21.46945313 4.60507813 21.91546875 3.5625 22.375 C2.04849609 23.03628906 2.04849609 23.03628906 0.50390625 23.7109375 C-2.12143547 24.75076286 -2.12143547 24.75076286 -3 27 C-2.29359375 27.10054687 -1.5871875 27.20109375 -0.859375 27.3046875 C17.05446147 31.66078435 32.84655874 49.68436891 42.16015625 64.7734375 C47 73.2611465 47 73.2611465 47 78 C41.06 80.31 35.12 82.62 29 85 C27.68 83.35 26.36 81.7 25 80 C24.23429687 81.39798828 24.23429687 81.39798828 23.453125 82.82421875 C14.15307795 99.31868291 2.0000612 111.57618283 -14.4375 121.0625 C-15.13649414 121.46952148 -15.83548828 121.87654297 -16.55566406 122.29589844 C-18.32639693 123.28098191 -20.16050922 124.15020119 -22 125 C-25 124 -25 124 -26.640625 121.015625 C-27.18859607 119.76539974 -27.72462227 118.5098864 -28.25 117.25 C-28.67152344 116.31800781 -28.67152344 116.31800781 -29.1015625 115.3671875 C-30.32008694 112.50787768 -31.01048491 110.27298202 -30.890625 107.15234375 C-30 105 -30 105 -26.5 103.3125 C-25.345 102.879375 -24.19 102.44625 -23 102 C-22.67 101.34 -22.34 100.68 -22 100 C-23.2375 99.62875 -24.475 99.2575 -25.75 98.875 C-49.34582679 90.91094543 -65.22198678 73.10715431 -76.71484375 51.6875 C-78 49 -78 49 -78 47 C-75.23371889 45.80077976 -72.462845 44.61539501 -69.6875 43.4375 C-68.90181641 43.09525391 -68.11613281 42.75300781 -67.30664062 42.40039062 C-66.54931641 42.08134766 -65.79199219 41.76230469 -65.01171875 41.43359375 C-63.96697388 40.98584595 -63.96697388 40.98584595 -62.90112305 40.52905273 C-61 40 -61 40 -58 41 C-56.65061396 43.17577663 -55.46148243 45.28612355 -54.3125 47.5625 C-53.99216797 48.17802734 -53.67183594 48.79355469 -53.34179688 49.42773438 C-52.55253629 50.9473555 -51.77512085 52.47311811 -51 54 C-50.52691406 52.91203125 -50.05382812 51.8240625 -49.56640625 50.703125 C-45.35262924 41.24157492 -40.83173624 32.88863961 -34 25 C-33.14019531 24.00484375 -32.28039063 23.0096875 -31.39453125 21.984375 C-22.62940348 12.35536165 -11.62117347 5.7168676 0 0 Z M-30.0625 44.6875 C-35.3796647 50.15658369 -44 59.13723152 -44 67 C-42.43316605 69.5187811 -42.43316605 69.5187811 -40.0625 71.8125 C-39.22203125 72.68390625 -38.3815625 73.5553125 -37.515625 74.453125 C-36.68546875 75.29359375 -35.8553125 76.1340625 -35 77 C-34.37609375 77.69609375 -33.7521875 78.3921875 -33.109375 79.109375 C-27.07069606 85.67315646 -18.5272516 92.1575828 -10 95 C-7.82539187 93.64277613 -5.92470736 92.2845843 -3.9375 90.6875 C-3.36185303 90.2325415 -2.78620605 89.77758301 -2.19311523 89.30883789 C6.21981877 82.54284957 13.45984801 75.32367042 19 66 C11.14164038 53.24172203 -0.19319825 39.46275827 -14 33 C-19.56713875 33 -26.13600135 40.98221254 -30.0625 44.6875 Z " fill="#63BEBD" transform="translate(78,1)"/>
<path d="M0 0 C7.57538994 6.65487443 12.3406174 13.37236903 13.33984375 23.6015625 C13.67997959 31.30768 13.24246161 38.09490994 8.9609375 44.72265625 C8.28998047 45.78226563 8.28998047 45.78226563 7.60546875 46.86328125 C1.68288871 55.43752581 -5.41775785 58.95410642 -15.37890625 61.265625 C-24.21518005 62.71208149 -33.17412736 60.069002 -40.4765625 54.97265625 C-47.88108573 48.73726826 -53.15038787 40.49653331 -54.421875 30.8046875 C-54.82305929 20.46750553 -51.74184166 11.63994086 -45.07421875 3.7265625 C-32.66967198 -8.48751138 -14.13559893 -10.69365941 0 0 Z M-36.0390625 16.72265625 C-39.46367579 21.80053113 -40.02236645 26.76769402 -39.0390625 32.72265625 C-36.93749565 37.77333543 -33.74287714 41.87848926 -29.0390625 44.72265625 C-22.87480788 46.98288295 -18.20841021 47.07077423 -12.0390625 44.72265625 C-7.52782162 42.31433423 -4.012533 39.54669524 -2.0390625 34.72265625 C-0.44285125 28.33781127 -0.7453677 22.51029887 -4.0390625 16.72265625 C-7.80231544 12.54474134 -11.50811994 9.03867865 -17.30859375 8.51953125 C-25.62822838 8.36617393 -30.4863348 10.26948622 -36.0390625 16.72265625 Z M-51.0390625 30.72265625 C-50.0390625 32.72265625 -50.0390625 32.72265625 -50.0390625 32.72265625 Z M-23.0390625 51.72265625 C-23.0390625 52.05265625 -23.0390625 52.38265625 -23.0390625 52.72265625 C-21.3890625 52.72265625 -19.7390625 52.72265625 -18.0390625 52.72265625 C-18.0390625 52.39265625 -18.0390625 52.06265625 -18.0390625 51.72265625 C-19.6890625 51.72265625 -21.3390625 51.72265625 -23.0390625 51.72265625 Z " fill="#F2DED3" transform="translate(251.0390625,37.27734375)"/>
<path d="M0 0 C2.86688248 0.09096556 5.70300515 0.23767988 8.5625 0.4375 C9.36880859 0.48970703 10.17511719 0.54191406 11.00585938 0.59570312 C13.00421738 0.72577376 15.00215386 0.86229056 17 1 C15.44323077 5.07956938 13.61882362 8.48095576 11 12 C10.34 12 9.68 12 9 12 C8.71125 12.763125 8.4225 13.52625 8.125 14.3125 C7 17 7 17 5 20 C4.34 20 3.68 20 3 20 C2.74734375 20.56847656 2.4946875 21.13695313 2.234375 21.72265625 C0.39816785 25.11034222 -2.19131849 27.80513412 -4.734375 30.68359375 C-6.25535415 32.90184727 -6.25535415 32.90184727 -5.625 35.265625 C-3.23253858 39.29140142 -0.28064577 42.75274355 2.75 46.3125 C16 62.01880297 16 62.01880297 16 65 C0.14445563 67.07025761 0.14445563 67.07025761 -4.86669922 63.77099609 C-8.14868173 60.54316178 -10.54806193 56.73799976 -12.89501953 52.80029297 C-14.46198002 50.24731757 -16.30688062 47.95249924 -18.1875 45.625 C-19.12537819 44.41696018 -20.06305076 43.20876045 -21 42 C-22.65079442 43.65079442 -22.22549447 45.63736179 -22.31640625 47.91015625 C-22.35830078 48.89951172 -22.40019531 49.88886719 -22.44335938 50.90820312 C-22.48267578 51.94912109 -22.52199219 52.99003906 -22.5625 54.0625 C-22.60568359 55.10728516 -22.64886719 56.15207031 -22.69335938 57.22851562 C-22.79981105 59.81883972 -22.90044308 62.40940175 -23 65 C-27.95 65 -32.9 65 -38 65 C-38 43.88 -38 22.76 -38 1 C-33.05 1 -28.1 1 -23 1 C-22.93941406 2.79308594 -22.87882812 4.58617187 -22.81640625 6.43359375 C-22.73202151 8.76823824 -22.64737249 11.10287319 -22.5625 13.4375 C-22.52318359 14.62150391 -22.48386719 15.80550781 -22.44335938 17.02539062 C-22.38051758 18.71245117 -22.38051758 18.71245117 -22.31640625 20.43359375 C-22.27974854 21.47572021 -22.24309082 22.51784668 -22.20532227 23.59155273 C-22.26484659 25.9499826 -22.26484659 25.9499826 -21 27 C-20.2265625 25.96101563 -19.453125 24.92203125 -18.65625 23.8515625 C-3.38703996 3.38703996 -3.38703996 3.38703996 0 0 Z M-23 28 C-22 30 -22 30 -22 30 Z " fill="#EFDDD1" transform="translate(482,32)"/>
<path d="M0 0 C4.95 0 9.9 0 15 0 C15.01458252 1.27641357 15.02916504 2.55282715 15.04418945 3.86791992 C15.1022354 8.61120379 15.17946828 13.35401607 15.26245117 18.09692383 C15.29567083 20.14827816 15.32371197 22.19972325 15.34643555 24.2512207 C15.3800357 27.20302949 15.43235476 30.15400886 15.48828125 33.10546875 C15.49467117 34.02023483 15.5010611 34.93500092 15.50764465 35.87748718 C15.61854869 40.69883641 15.8151121 44.1132165 19 48 C21.85324437 49.42662219 23.83454549 49.31033868 27 49 C29.83952178 47.70466494 29.83952178 47.70466494 32 45 C32.75247541 41.68076814 32.69742188 38.41146126 32.671875 35.01953125 C32.69099945 33.56663948 32.69099945 33.56663948 32.71051025 32.08439636 C32.7468362 28.99346659 32.7495196 25.90362465 32.75 22.8125 C32.77157934 19.71106915 32.79998211 16.60980474 32.83233643 13.50846863 C32.85016575 11.57876611 32.86038952 9.64897624 32.86248779 7.7191925 C32.86629456 6.85126572 32.87010132 5.98333893 32.87402344 5.08911133 C32.87448669 4.32174149 32.87494995 3.55437164 32.87542725 2.76374817 C33 1 33 1 34 0 C36.53049402 -0.07313567 39.03304837 -0.09247527 41.5625 -0.0625 C42.62887695 -0.05573242 42.62887695 -0.05573242 43.71679688 -0.04882812 C45.47790013 -0.03700864 47.23896036 -0.01907263 49 0 C50.72934734 5.18804202 50.18591095 10.75271738 50.18530273 16.18408203 C50.18745745 18.33256818 50.20552907 20.48051314 50.22460938 22.62890625 C50.3303881 47.84163098 50.3303881 47.84163098 43 57 C37.60809798 62.15843822 32.13967396 64.99136009 24.625 65.3125 C16.74019883 65.0747673 11.41859974 62.16254388 5.6953125 56.83203125 C-0.44727042 50.19407874 -0.14436879 42.36383647 -0.09765625 33.88671875 C-0.0962413 32.91716751 -0.09482635 31.94761627 -0.09336853 30.94868469 C-0.08778513 27.86159133 -0.07523564 24.77457133 -0.0625 21.6875 C-0.05748286 19.59049584 -0.05292032 17.49349054 -0.04882812 15.39648438 C-0.03782112 10.26429479 -0.02056788 5.13215982 0 0 Z " fill="#F3E0D6" transform="translate(392,32)"/>
<path d="M0 0 C25.76056338 0 25.76056338 0 35.0078125 8.94140625 C41.41259224 15.7361449 45.08122633 21.75022111 45.6875 31.1875 C45.3668762 40.61826218 41.00504498 49.65941556 34.125 56.125 C23.39161539 64.37824331 13.72386897 64 0 64 C0 42.88 0 21.76 0 0 Z M14 14 C13.97514636 18.02017255 13.95706762 22.04031488 13.94506836 26.06054688 C13.94006214 27.4261147 13.93325518 28.79167724 13.92456055 30.15722656 C13.91233169 32.12823118 13.90727134 34.0992761 13.90234375 36.0703125 C13.89710693 37.25383301 13.89187012 38.43735352 13.88647461 39.65673828 C13.99529823 42.86153532 14.39482517 45.85476612 15 49 C21.09832635 47.60495802 24.73019053 46.093865 28.125 40.71875 C30.40439459 36.24136776 30.70727999 31.91122512 30 27 C27.87366697 21.97091359 24.6886935 17.85895945 20 15 C18.00772853 14.62321689 16.00753926 14.28442441 14 14 Z " fill="#EFDDD1" transform="translate(151,33)"/>
<path d="M0 0 C3.05637361 2.200589 5.09709713 4.08647152 7.125 7.25 C7.125 8.24 7.125 9.23 7.125 10.25 C5.54966914 11.11883706 3.96435491 11.96959068 2.375 12.8125 C1.49328125 13.28816406 0.6115625 13.76382813 -0.296875 14.25390625 C-3.15826122 15.35944183 -4.06787006 15.27928098 -6.875 14.25 C-8.87288438 13.90421232 -10.87259451 13.56856451 -12.875 13.25 C-13.535 15.23 -14.195 17.21 -14.875 19.25 C-12.4851452 22.12553497 -10.91651042 22.58248867 -7.25 22.9375 C-0.97589025 24.02304978 3.09483047 27.42943085 7.125 32.25 C10.02127393 37.98720504 10.12077734 44.34708749 8.54296875 50.53125 C6.09535153 56.34294386 1.74976375 59.62329873 -3.875 62.25 C-10.21529881 64.19246676 -16.01109067 63.23319271 -21.875 60.25 C-24.82990059 57.73519099 -26.72827776 55.47008337 -28.875 52.25 C-28.875 51.26 -28.875 50.27 -28.875 49.25 C-27.13470698 48.35584945 -25.3822985 47.48524822 -23.625 46.625 C-22.16320312 45.89410156 -22.16320312 45.89410156 -20.671875 45.1484375 C-17.875 44.25 -17.875 44.25 -15.6796875 45.05859375 C-15.08414062 45.45175781 -14.48859375 45.84492187 -13.875 46.25 C-10.28280632 47.3112461 -10.28280632 47.3112461 -6.875 46.25 C-6.6247843 43.33365871 -6.6247843 43.33365871 -6.875 40.25 C-9.73344161 38.34437226 -10.94751362 37.92339148 -14.1875 37.375 C-19.66297207 36.22835082 -23.21584127 33.95524647 -27.125 29.9375 C-30.79325898 24.30410229 -31.26850068 19.12095341 -30.41015625 12.609375 C-29.02242023 6.49118117 -24.79977116 2.79583524 -19.875 -0.75 C-13.60523427 -3.88488286 -6.1487425 -3.25288313 0 0 Z " fill="#F2DFD4" transform="translate(296.875,33.75)"/>
<path d="M0 0 C4.95 0 9.9 0 15 0 C15.16734864 6.65675712 15.32793554 13.3136294 15.48217773 19.97070312 C15.53564249 22.23669863 15.59097521 24.50265085 15.64819336 26.76855469 C15.7299795 30.02008731 15.80511006 33.27171497 15.87890625 36.5234375 C15.90594131 37.54118256 15.93297638 38.55892761 15.96083069 39.60751343 C15.98092697 40.54833771 16.00102325 41.48916199 16.02172852 42.45849609 C16.04171402 43.28900482 16.06169952 44.11951355 16.08229065 44.97518921 C16 47 16 47 15 49 C15.99 48.505 15.99 48.505 17 48 C24.72461337 47.65121268 32.34538487 47.94419102 40 49 C40 53.95 40 58.9 40 64 C26.8 64 13.6 64 0 64 C-0.16701294 57.2963577 -0.32976084 50.59287036 -0.48217773 43.88891602 C-0.53510226 41.61477001 -0.5903833 39.34067745 -0.64819336 37.06665039 C-0.962726 24.63030317 -1.10621667 12.39782095 0 0 Z " fill="#E3D2C8" transform="translate(349,33)"/>
<path d="M0 0 C13.53 0 27.06 0 41 0 C41 4.95 41 9.9 41 15 C39 16 39 16 28 15 C28 31.17 28 47.34 28 64 C23.05 64 18.1 64 13 64 C13 47.83 13 31.66 13 15 C9.04 15 5.08 15 1 15 C0.67 10.05 0.34 5.1 0 0 Z " fill="#E8D6CC" transform="translate(307,33)"/>
<path d="M0 0 C4.29 0 8.58 0 13 0 C13 15.18 13 30.36 13 46 C13.33 44.35 13.66 42.7 14 41 C14.66 41.33 15.32 41.66 16 42 C15.67 49.26 15.34 56.52 15 64 C10.05 64 5.1 64 0 64 C0 42.88 0 21.76 0 0 Z " fill="#EDDBD1" transform="translate(444,33)"/>
<path d="M0 0 C3.3 0 6.6 0 10 0 C10.01458252 1.27641357 10.02916504 2.55282715 10.04418945 3.86791992 C10.1022354 8.61120379 10.17946828 13.35401607 10.26245117 18.09692383 C10.29567083 20.14827816 10.32371197 22.19972325 10.34643555 24.2512207 C10.3800357 27.20302949 10.43235476 30.15400886 10.48828125 33.10546875 C10.49467117 34.02023483 10.5010611 34.93500092 10.50764465 35.87748718 C10.61854869 40.69883641 10.8151121 44.1132165 14 48 C16.85324437 49.42662219 18.83454549 49.31033868 22 49 C24.97071986 47.70732203 24.97071986 47.70732203 27 45 C27.70186779 42.0015795 27.92775564 39.0736691 28 36 C28.66 36 29.32 36 30 36 C30.33 26.43 30.66 16.86 31 7 C31.33 7 31.66 7 32 7 C32.97302709 14.3918671 33.21608937 21.67313829 33.25 29.125 C33.270625 30.26582031 33.29125 31.40664063 33.3125 32.58203125 C33.3473648 40.08667955 33.09018977 45.64493683 27.8125 51.375 C24.20681313 53.45828574 21.16450779 54.22863964 17 54 C13.62193689 52.66152216 11.01842265 51.01228176 8 49 C12.23513217 52.96189783 16.547001 54.43181728 22 56 C22 56.33 22 56.66 22 57 C19.03 56.67 16.06 56.34 13 56 C15.43387753 57.21693876 17.41838846 57.31959896 20.125 57.5625 C21.03507812 57.64628906 21.94515625 57.73007813 22.8828125 57.81640625 C23.58148438 57.87699219 24.28015625 57.93757813 25 58 C21.54337669 60.30441554 20.05142119 60.25860135 16 60 C15.34 59.67 14.68 59.34 14 59 C14 59.66 14 60.32 14 61 C18.62 60.67 23.24 60.34 28 60 C27.67 60.66 27.34 61.32 27 62 C20.26591212 63.54953925 15.02356111 63.34642284 9 60 C9 59.01 9 58.02 9 57 C8.236875 56.401875 7.47375 55.80375 6.6875 55.1875 C2.68340409 51.92835217 1.02233763 47.97520916 0 43 C-0.08337107 41.53475961 -0.11784187 40.06623681 -0.11352539 38.59863281 C-0.11344986 37.7380426 -0.11337433 36.87745239 -0.11329651 35.99078369 C-0.10813522 35.07085632 -0.10297394 34.15092896 -0.09765625 33.203125 C-0.0962413 32.25435486 -0.09482635 31.30558472 -0.09336853 30.32806396 C-0.08777742 27.30201038 -0.07522652 24.27603117 -0.0625 21.25 C-0.05748385 19.19661565 -0.05292115 17.14323014 -0.04882812 15.08984375 C-0.03781089 10.05986724 -0.02055233 5.02994622 0 0 Z " fill="#E8D3C8" transform="translate(397,32)"/>
<path d="M0 0 C1.51400391 0.01740234 1.51400391 0.01740234 3.05859375 0.03515625 C4.07050781 0.04417969 5.08242188 0.05320312 6.125 0.0625 C7.29869141 0.07990234 7.29869141 0.07990234 8.49609375 0.09765625 C8.57058142 6.07500523 8.62485525 12.05208043 8.66088867 18.02978516 C8.67591974 20.06075755 8.69635022 22.09169779 8.72241211 24.12255859 C8.75904607 27.05183884 8.77587726 29.98068769 8.7890625 32.91015625 C8.80454636 33.80943848 8.82003021 34.7087207 8.83598328 35.63525391 C8.83752134 41.47471565 7.85381887 45.74586498 5.49609375 51.09765625 C4.49609375 49.09765625 4.49609375 49.09765625 5.43359375 45.97265625 C5.78421875 45.02390625 6.13484375 44.07515625 6.49609375 43.09765625 C5.83609375 43.09765625 5.17609375 43.09765625 4.49609375 43.09765625 C4.45484375 43.94328125 4.41359375 44.78890625 4.37109375 45.66015625 C3.20700152 50.23337574 0.72210252 52.7631273 -2.50390625 56.09765625 C-3.16390625 55.76765625 -3.82390625 55.43765625 -4.50390625 55.09765625 C-4.07078125 54.60394531 -3.63765625 54.11023438 -3.19140625 53.6015625 C-2.63453125 52.96089844 -2.07765625 52.32023437 -1.50390625 51.66015625 C-0.66859375 50.70302734 -0.66859375 50.70302734 0.18359375 49.7265625 C1.6006644 48.31652446 1.6006644 48.31652446 1.49609375 47.09765625 C0.38234375 48.55171875 0.38234375 48.55171875 -0.75390625 50.03515625 C-2.4770054 52.12152986 -3.24259319 52.99878104 -5.81640625 53.97265625 C-6.37328125 54.01390625 -6.93015625 54.05515625 -7.50390625 54.09765625 C-7.50390625 54.75765625 -7.50390625 55.41765625 -7.50390625 56.09765625 C-6.84390625 56.42765625 -6.18390625 56.75765625 -5.50390625 57.09765625 C-7.13403463 58.72778463 -8.9482807 58.30742081 -11.19140625 58.34765625 C-15.67315212 58.32193604 -18.65239094 57.53019224 -22.50390625 55.09765625 C-21.51390625 54.60265625 -21.51390625 54.60265625 -20.50390625 54.09765625 C-19.74078125 54.40703125 -18.97765625 54.71640625 -18.19140625 55.03515625 C-15.3980702 56.13949841 -13.47282153 56.26730855 -10.50390625 56.09765625 C-12.29828125 55.75734375 -12.29828125 55.75734375 -14.12890625 55.41015625 C-18.67157933 54.30277865 -21.14423374 52.28934514 -24.50390625 49.09765625 C-24.17390625 48.43765625 -23.84390625 47.77765625 -23.50390625 47.09765625 C-22.26640625 48.30421875 -22.26640625 48.30421875 -21.00390625 49.53515625 C-17.1964887 52.68705144 -14.43281575 53.09765625 -9.50390625 53.09765625 C-5.31767638 51.59693234 -2.73535844 49.97333636 -0.50390625 46.09765625 C0.59513766 42.71409348 0.611114 39.56178649 0.59375 36.01953125 C0.59125244 34.9737793 0.58875488 33.92802734 0.58618164 32.85058594 C0.57707764 31.52961914 0.56797363 30.20865234 0.55859375 28.84765625 C0.53796875 24.64015625 0.51734375 20.43265625 0.49609375 16.09765625 C0.16609375 25.33765625 -0.16390625 34.57765625 -0.50390625 44.09765625 C-1.16390625 43.43765625 -1.82390625 42.77765625 -2.50390625 42.09765625 C-2.12890625 38.97265625 -2.12890625 38.97265625 -1.50390625 36.09765625 C-2.16390625 36.09765625 -2.82390625 36.09765625 -3.50390625 36.09765625 C-3.52855723 31.13143276 -3.54674274 26.16524459 -3.55883789 21.19897461 C-3.56387815 19.50821309 -3.5707103 17.81745596 -3.5793457 16.12670898 C-3.59142482 13.70164918 -3.59713748 11.27664681 -3.6015625 8.8515625 C-3.60672379 8.09114151 -3.61188507 7.33072052 -3.61720276 6.54725647 C-3.61739863 4.73033055 -3.56587902 2.91352498 -3.50390625 1.09765625 C-2.50390625 0.09765625 -2.50390625 0.09765625 0 0 Z " fill="#F6E2D4" transform="translate(428.50390625,31.90234375)"/>
<path d="M0 0 C6.27 0 12.54 0 19 0 C19 0.33 19 0.66 19 1 C15.7 1 12.4 1 9 1 C7.9716535 4.08503949 7.87323187 6.20132259 7.87060547 9.43359375 C7.86745331 10.54484619 7.86430115 11.65609863 7.86105347 12.80102539 C7.8630777 14.00106201 7.86510193 15.20109863 7.8671875 16.4375 C7.86575241 18.28492798 7.86575241 18.28492798 7.86428833 20.16967773 C7.86343284 23.44333656 7.86746146 26.71694805 7.87304688 29.99060059 C7.87499804 31.99798087 7.87305384 34.00531743 7.86962891 36.01269531 C7.86346367 39.86265096 7.86419684 43.71254168 7.8671875 47.5625 C7.86516327 48.76253662 7.86313904 49.96257324 7.86105347 51.19897461 C7.86420563 52.31022705 7.86735779 53.42147949 7.87060547 54.56640625 C7.87140106 55.54552979 7.87219666 56.52465332 7.87301636 57.53344727 C7.89692673 60.1358365 7.89692673 60.1358365 9 63 C9.66 63 10.32 63 11 63 C11.33 61.68 11.66 60.36 12 59 C12 60.32 12 61.64 12 63 C13.32 63.33 14.64 63.66 16 64 C10.72 64 5.44 64 0 64 C0 42.88 0 21.76 0 0 Z " fill="#E5D3C9" transform="translate(151,33)"/>
<path d="M0 0 C3.39855136 1.72431764 5.50047573 4.15298059 7.4375 7.4375 C8.16657107 10.75882376 7.999384 12.7353456 7 16 C4.52662053 19.78281566 2.73905754 21.65784373 -1.375 23.5625 C-5.8722674 24.10527365 -8.07750004 23.18754805 -12 21 C-14.5242483 18.98060136 -14.94833532 18.15499404 -16 15 C-16.67195988 8.16840786 -16.67195988 8.16840786 -14.953125 5.1796875 C-10.55580612 -0.1746949 -6.68045965 -0.99926203 0 0 Z " fill="#62BEBE" transform="translate(70,54)"/>
<path d="M0 0 C18.86363636 0 18.86363636 0 25 5 C25.66773438 5.53109375 26.33546875 6.0621875 27.0234375 6.609375 C31.58517453 10.66838999 33.05307314 14.00279653 34 20 C31.49962266 17.82575883 30.56371414 16.26954202 30 13 C29.67 13.99 29.34 14.98 29 16 C28.34 16 27.68 16 27 16 C27.66 17.65 28.32 19.3 29 21 C28.34 21 27.68 21 27 21 C26.67 19.68 26.34 18.36 26 17 C25.34 17 24.68 17 24 17 C23.67 17.66 23.34 18.32 23 19 C22.67 19.33 22.34 19.66 22 20 C21.34 20 20.68 20 20 20 C19.67 18.02 19.34 16.04 19 14 C19.66 14 20.32 14 21 14 C20.67 12.35 20.34 10.7 20 9 C24.75 9.875 24.75 9.875 27 11 C27 10.34 27 9.68 27 9 C26.13761719 8.57074219 26.13761719 8.57074219 25.2578125 8.1328125 C23.8108611 7.40683342 22.36774192 6.6731345 20.9296875 5.9296875 C20.25164062 5.58164062 19.57359375 5.23359375 18.875 4.875 C18.19179687 4.52179687 17.50859375 4.16859375 16.8046875 3.8046875 C15.02488612 2.86425376 15.02488612 2.86425376 13 3 C16.465 4.485 16.465 4.485 20 6 C19.01 6.495 19.01 6.495 18 7 C17.67 7.99 17.34 8.98 17 10 C14.36 9.01 11.72 8.02 9 7 C9 7.66 9 8.32 9 9 C10.65 9.33 12.3 9.66 14 10 C12 11 12 11 8.875 10.0625 C7.451875 9.5365625 7.451875 9.5365625 6 9 C6.33 9.99 6.66 10.98 7 12 C6.0625 14.1875 6.0625 14.1875 5 16 C4.67 15.34 4.34 14.68 4 14 C4.03552979 14.77714355 4.07105957 15.55428711 4.10766602 16.35498047 C4.26485529 19.86142966 4.41378153 23.36818176 4.5625 26.875 C4.61857422 28.09832031 4.67464844 29.32164063 4.73242188 30.58203125 C4.78076172 31.74863281 4.82910156 32.91523437 4.87890625 34.1171875 C4.94960327 35.73536377 4.94960327 35.73536377 5.02172852 37.38623047 C5 40 5 40 4 42 C4.66 42 5.32 42 6 42 C6 44.66666667 6 47.33333333 6 50 C5.34 50 4.68 50 4 50 C3.67 50.99 3.34 51.98 3 53 C2.67 53 2.34 53 2 53 C1.67 55.97 1.34 58.94 1 62 C0.67 62 0.34 62 0 62 C0 41.54 0 21.08 0 0 Z " fill="#F7E4D7" transform="translate(158,34)"/>
<path d="M0 0 C1.65 0 3.3 0 5 0 C5 15.18 5 30.36 5 46 C5.33 44.35 5.66 42.7 6 41 C6.66 41.33 7.32 41.66 8 42 C7.67 49.26 7.34 56.52 7 64 C4.03 64 1.06 64 -2 64 C-1.01 63.505 -1.01 63.505 0 63 C0 42.21 0 21.42 0 0 Z " fill="#E2D0C6" transform="translate(452,33)"/>
<path d="M0 0 C2.64 0 5.28 0 8 0 C8 20.79 8 41.58 8 63 C7.34 61.68 6.68 60.36 6 59 C5.34 60.32 4.68 61.64 4 63 C3.67 44.52 3.34 26.04 3 7 C2.67 25.48 2.34 43.96 2 63 C1.67 63 1.34 63 1 63 C1 47.49 1 31.98 1 16 C0.34 15.67 -0.32 15.34 -1 15 C-0.67 10.05 -0.34 5.1 0 0 Z " fill="#EBDAD0" transform="translate(349,33)"/>
<path d="M0 0 C0.99 0.33 1.98 0.66 3 1 C3 1.66 3 2.32 3 3 C3.99 2.67 4.98 2.34 6 2 C8.81821918 6.82479124 8.59529034 11.55949842 8 17 C6.1792942 23.4760434 2.60261509 26.55223686 -3 30 C-3.33 29.34 -3.66 28.68 -4 28 C-4.639375 28.350625 -5.27875 28.70125 -5.9375 29.0625 C-10.04422169 30.3196597 -13.8408017 30.06557973 -18 29 C-18.33 28.34 -18.66 27.68 -19 27 C-15.37 27 -11.74 27 -8 27 C-8.33 26.01 -8.66 25.02 -9 24 C-7.35 23.67 -5.7 23.34 -4 23 C-3.67 23.66 -3.34 24.32 -3 25 C-3 23.68 -3 22.36 -3 21 C-3.66 20.34 -4.32 19.68 -5 19 C-4.34 19 -3.68 19 -3 19 C-3.33 18.34 -3.66 17.68 -4 17 C-4.350625 17.474375 -4.70125 17.94875 -5.0625 18.4375 C-7.84163543 20.67873825 -10.5144717 20.67117658 -14 21 C-14.33 20.34 -14.66 19.68 -15 19 C-14.15115234 18.80083984 -14.15115234 18.80083984 -13.28515625 18.59765625 C-12.18494141 18.33275391 -12.18494141 18.33275391 -11.0625 18.0625 C-10.33160156 17.88847656 -9.60070312 17.71445313 -8.84765625 17.53515625 C-7.00030102 17.16112431 -7.00030102 17.16112431 -6 16 C-5.78673597 10.3952291 -5.78673597 10.3952291 -7 5 C-5.0625 4.4375 -5.0625 4.4375 -3 4 C-2.67 4.33 -2.34 4.66 -2 5 C-1.34 3.35 -0.68 1.7 0 0 Z " fill="#EAD8CC" transform="translate(298,65)"/>
<path d="M0 0 C1.3959021 5.58360841 -0.65691799 8.19420161 -3.23046875 13.1484375 C-5.43130159 16.69503347 -7.67753852 18.547707 -11 21 C-11 21.99 -11 22.98 -11 24 C-17.17121215 27.3284547 -21.09212392 28.50717296 -28 27 C-28 26.34 -28 25.68 -28 25 C-26.02 24.34 -24.04 23.68 -22 23 C-23.98 23.33 -25.96 23.66 -28 24 C-28 21.69 -28 19.38 -28 17 C-27.16855469 16.66226563 -26.33710938 16.32453125 -25.48046875 15.9765625 C-24.39378906 15.53054687 -23.30710938 15.08453125 -22.1875 14.625 C-21.10855469 14.18414062 -20.02960938 13.74328125 -18.91796875 13.2890625 C-15.89269888 12.0520881 -15.89269888 12.0520881 -13 10 C-13 10.99 -13 11.98 -13 13 C-12.18357746 11.73168307 -11.37200895 10.46024069 -10.5625 9.1875 C-10.11003906 8.47980469 -9.65757812 7.77210937 -9.19140625 7.04296875 C-7.85913661 4.91865448 -7.85913661 4.91865448 -7 2 C-6.34 2 -5.68 2 -5 2 C-5.66 4.64 -6.32 7.28 -7 10 C-6.34 9.34 -5.68 8.68 -5 8 C-5 9.32 -5 10.64 -5 12 C-3.35 8.04 -1.7 4.08 0 0 Z " fill="#E9D4C8" transform="translate(192,68)"/>
<path d="M0 0 C1.32 0 2.64 0 4 0 C4.02560525 6.86441236 4.04297267 13.72881215 4.05493164 20.59326172 C4.05992351 22.92269348 4.06671934 25.25212218 4.07543945 27.58154297 C4.16597155 52.40863909 4.16597155 52.40863909 3 64 C2.01 64 1.02 64 0 64 C0 42.88 0 21.76 0 0 Z " fill="#E2D2C9" transform="translate(444,33)"/>
<path d="M0 0 C1.32 0 2.64 0 4 0 C4.00142502 0.57105469 4.00285004 1.14210937 4.00431824 1.73046875 C4.02408163 7.70116544 4.07849664 13.67084891 4.15258789 19.64111328 C4.17571299 21.8659741 4.19015065 24.09094354 4.19555664 26.31591797 C4.20488604 29.52379619 4.24596597 32.72997886 4.29296875 35.9375 C4.2890361 36.92427734 4.28510345 37.91105469 4.28105164 38.92773438 C4.40647394 44.9320578 5.37483366 48.62026177 9.02876282 53.44360352 C9.34927109 53.95721436 9.66977936 54.4708252 10 55 C9.67 55.66 9.34 56.32 9 57 C7.02 54.03 5.04 51.06 3 48 C2.01 48.495 2.01 48.495 1 49 C-0.3226348 43.99778603 -0.12593478 39.01854038 -0.09765625 33.88671875 C-0.0962413 32.91716751 -0.09482635 31.94761627 -0.09336853 30.94868469 C-0.08778513 27.86159133 -0.07523564 24.77457133 -0.0625 21.6875 C-0.05748286 19.59049584 -0.05292032 17.49349054 -0.04882812 15.39648438 C-0.03782112 10.26429479 -0.02056788 5.13215982 0 0 Z " fill="#E4D4CC" transform="translate(392,32)"/>
<path d="M0 0 C2 2 2 2 2 4 C2.66 4.66 3.32 5.32 4 6 C4 12.45273541 1.3164338 16.35075705 -3 21 C-7.41018589 24.75334969 -10.24583659 25.46033307 -16 25 C-15.34 24.01 -14.68 23.02 -14 22 C-14.68449219 22.32742187 -15.36898437 22.65484375 -16.07421875 22.9921875 C-19.48912059 24.16848212 -22.21031284 24.19777146 -25.8125 24.125 C-26.97394531 24.10695313 -28.13539063 24.08890625 -29.33203125 24.0703125 C-30.21246094 24.04710938 -31.09289062 24.02390625 -32 24 C-32.33 22.35 -32.66 20.7 -33 19 C-31.68 19 -30.36 19 -29 19 C-29 19.99 -29 20.98 -29 22 C-19.93036471 21.46102577 -13.16510565 20.64757859 -6.6875 13.875 C-3.10075073 9.58358486 -1.23151818 5.426377 0 0 Z " fill="#ECD8CC" transform="translate(257,69)"/>
<path d="M0 0 C0.99 0.33 1.98 0.66 3 1 C3.68630056 7.45122526 1.72916748 11.73396349 -2 17 C-2.66 17.33 -3.32 17.66 -4 18 C-4.33 17.34 -4.66 16.68 -5 16 C-5.66 16.33 -6.32 16.66 -7 17 C-6.67 15.68 -6.34 14.36 -6 13 C-6.928125 13.845625 -7.85625 14.69125 -8.8125 15.5625 C-10.39453125 17.00390625 -10.39453125 17.00390625 -12 18 C-12.99 17.67 -13.98 17.34 -15 17 C-15.33 16.01 -15.66 15.02 -16 14 C-15.0925 13.505 -14.185 13.01 -13.25 12.5 C-9.27665704 9.90132072 -7.76626074 6.28058486 -6 2 C-5.38671875 3.80859375 -5.38671875 3.80859375 -5 6 C-6.8125 9.0625 -6.8125 9.0625 -9 12 C-9.99 13.485 -9.99 13.485 -11 15 C-7.46730171 11.09543873 -5.36144033 8.19822672 -4 3 C-3.34 3 -2.68 3 -2 3 C-2.33 5.31 -2.66 7.62 -3 10 C-2.01 6.7 -1.02 3.4 0 0 Z " fill="#E4D0C4" transform="translate(437,72)"/>
<path d="M0 0 C0.66 0 1.32 0 2 0 C1.17799242 6.78156257 -2.50457943 12.10999418 -7.3515625 16.7109375 C-10.85603295 19.45140017 -14.50666802 21 -19 21 C-18.67 20.01 -18.34 19.02 -18 18 C-18.845625 18.185625 -19.69125 18.37125 -20.5625 18.5625 C-24.34139258 19.04344996 -27.29164594 18.85577401 -31 18 C-31.66 17.01 -32.32 16.02 -33 15 C-29.04 15.33 -25.08 15.66 -21 16 C-21.33 15.34 -21.66 14.68 -22 14 C-17.05 12.515 -17.05 12.515 -12 11 C-11.67 11.66 -11.34 12.32 -11 13 C-9.02 11.35 -7.04 9.7 -5 8 C-6.44253657 11.36591866 -8.33264727 13.51047079 -11 16 C-4.75413223 11.68403519 -2.28099282 7.16883457 0 0 Z " fill="#E9D3C7" transform="translate(254,69)"/>
<path d="M0 0 C1.76923828 0.01353516 1.76923828 0.01353516 3.57421875 0.02734375 C4.47785156 0.03894531 5.38148438 0.05054688 6.3125 0.0625 C6.3125 1.3825 6.3125 2.7025 6.3125 4.0625 C7.6325 4.0625 8.9525 4.0625 10.3125 4.0625 C10.3125 4.7225 10.3125 5.3825 10.3125 6.0625 C7.3425 5.5675 7.3425 5.5675 4.3125 5.0625 C4.6425 3.7425 4.9725 2.4225 5.3125 1.0625 C2.3425 1.0625 -0.6275 1.0625 -3.6875 1.0625 C-3.6875 1.7225 -3.6875 2.3825 -3.6875 3.0625 C-3.0275 3.3925 -2.3675 3.7225 -1.6875 4.0625 C-3.6675 4.3925 -5.6475 4.7225 -7.6875 5.0625 C-7.6875 5.7225 -7.6875 6.3825 -7.6875 7.0625 C-6.6975 7.3925 -5.7075 7.7225 -4.6875 8.0625 C-5.71875 8.454375 -6.75 8.84625 -7.8125 9.25 C-13.65140515 11.76758461 -17.73603119 15.32353287 -20.6875 21.0625 C-21.0175 20.4025 -21.3475 19.7425 -21.6875 19.0625 C-19.98614224 15.82992026 -17.92710447 12.94199147 -15.6875 10.0625 C-17.3375 11.3825 -18.9875 12.7025 -20.6875 14.0625 C-19.24496343 10.69658134 -17.35485273 8.55202921 -14.6875 6.0625 C-15.0175 5.4025 -15.3475 4.7425 -15.6875 4.0625 C-14.0375 3.4025 -12.3875 2.7425 -10.6875 2.0625 C-10.6875 2.7225 -10.6875 3.3825 -10.6875 4.0625 C-10.3575 3.7325 -10.0275 3.4025 -9.6875 3.0625 C-9.6875 2.4025 -9.6875 1.7425 -9.6875 1.0625 C-6.26517028 -0.07827657 -3.60076783 -0.03565117 0 0 Z " fill="#F9E4D7" transform="translate(230.6875,34.9375)"/>
<path d="M0 0 C0.66 0 1.32 0 2 0 C2.02505615 1.27117676 2.0501123 2.54235352 2.07592773 3.85205078 C2.17031871 8.58212835 2.27046134 13.3120699 2.37231445 18.04199219 C2.41554367 20.0865561 2.45722692 22.13115332 2.49731445 24.17578125 C2.55530888 27.11989363 2.61891844 30.06384022 2.68359375 33.0078125 C2.70030624 33.9174173 2.71701874 34.82702209 2.73423767 35.76419067 C2.83873256 40.27211243 3.10303385 44.56305003 4 49 C2.02441406 47.63964844 2.02441406 47.63964844 0 45 C-0.57919386 41.59108125 -0.46451391 38.21461491 -0.390625 34.765625 C-0.38496521 33.77246277 -0.37930542 32.77930054 -0.37347412 31.75604248 C-0.35110026 28.58686941 -0.30090106 25.4188308 -0.25 22.25 C-0.22993635 20.10027676 -0.21168534 17.95053577 -0.1953125 15.80078125 C-0.15123239 10.53346771 -0.08431033 5.26681491 0 0 Z " fill="#ECDED5" transform="translate(405,32)"/>
<path d="M0 0 C0.33 0 0.66 0 1 0 C1 12.21 1 24.42 1 37 C0.34 36.34 -0.32 35.68 -1 35 C-0.625 31.875 -0.625 31.875 0 29 C-0.66 29 -1.32 29 -2 29 C-2 20.75 -2 12.5 -2 4 C-1.34 4 -0.68 4 0 4 C0 2.68 0 1.36 0 0 Z " fill="#F7E8DF" transform="translate(427,39)"/>
<path d="M0 0 C7.66742597 5.96583144 7.66742597 5.96583144 9 11 C7.68 10.34 6.36 9.68 5 9 C6.32 10.65 7.64 12.3 9 14 C8.67 14.66 8.34 15.32 8 16 C7.236875 15.175 6.47375 14.35 5.6875 13.5 C3.24565858 10.65944803 3.24565858 10.65944803 0 11 C-3.57583797 8.9411842 -4.74155722 6.88019859 -6 3 C-4.02 3.99 -4.02 3.99 -2 5 C-2 5.66 -2 6.32 -2 7 C-1.34 7 -0.68 7 0 7 C-0.99 5.68 -1.98 4.36 -3 3 C-2.67 2.34 -2.34 1.68 -2 1 C-0.68 1.99 0.64 2.98 2 4 C1.34 2.68 0.68 1.36 0 0 Z " fill="#F7E3D4" transform="translate(475,74)"/>
<path d="M0 0 C0 0.33 0 0.66 0 1 C-0.8353125 1.02126953 -0.8353125 1.02126953 -1.6875 1.04296875 C-7.88103093 1.43006443 -12.20918689 3.0095345 -17 7 C-20.05712176 10.74743958 -20.53347548 14.24144988 -21 19 C-22.32 19 -23.64 19 -25 19 C-24.36927957 9.01721794 -24.36927957 9.01721794 -21 5 C-20.01 5 -19.02 5 -18 5 C-17.236875 4.38125 -16.47375 3.7625 -15.6875 3.125 C-10.45242311 -1.01436313 -6.44759617 -1.28951923 0 0 Z " fill="#EAD8CE" transform="translate(291,34)"/>
<path d="M0 0 C0.7425 0.763125 1.485 1.52625 2.25 2.3125 C6.16790284 6.16608932 6.16790284 6.16608932 10.9375 8.75 C14.1956254 10.72462146 15.94504916 13.8501983 18 17 C17.38125 16.814375 16.7625 16.62875 16.125 16.4375 C13.95839822 15.76313824 13.95839822 15.76313824 12 17 C7.09059549 13.57829383 3.11524625 9.09930798 0 4 C0 2.68 0 1.36 0 0 Z " fill="#F2E2D8" transform="translate(468,79)"/>
<path d="M0 0 C0.66 0 1.32 0 2 0 C1.96519531 0.56847656 1.93039063 1.13695312 1.89453125 1.72265625 C1.69572385 7.39340053 2.5111773 10.92280169 5 16 C5.37308631 17.32276056 5.73046415 18.65232077 6 20 C5.34 20 4.68 20 4 20 C3.67 18.68 3.34 17.36 3 16 C2.8508625 18.87199032 2.8508625 18.87199032 3.625 21 C4 23 4 23 2 26 C1.54427083 24.07942708 1.08854167 22.15885417 0.6328125 20.23828125 C0.0498752 17.93254201 0.0498752 17.93254201 -1.125 15.65625 C-2.27043528 12.17903576 -1.77610804 9.76859424 -1.125 6.1875 C-0.92132813 5.02605469 -0.71765625 3.86460938 -0.5078125 2.66796875 C-0.34023437 1.78753906 -0.17265625 0.90710937 0 0 Z " fill="#E9D6C7" transform="translate(202,60)"/>
<path d="M0 0 C0.99 0 1.98 0 3 0 C3.0578304 4.45827926 3.09353855 8.9164628 3.125 13.375 C3.14175781 14.64601563 3.15851563 15.91703125 3.17578125 17.2265625 C3.18222656 18.43828125 3.18867188 19.65 3.1953125 20.8984375 C3.20578613 22.01911621 3.21625977 23.13979492 3.22705078 24.29443359 C3 27 3 27 1 29 C1 26.03 1 23.06 1 20 C0.67 20 0.34 20 0 20 C0 13.4 0 6.8 0 0 Z " fill="#E7D3C9" transform="translate(439,36)"/>
<path d="M0 0 C3.43772727 3.43772727 3.97127774 7.10960984 4.125 11.875 C4.08375 12.90625 4.0425 13.9375 4 15 C1.69 14.34 -0.62 13.68 -3 13 C-4.25 6.375 -4.25 6.375 -2 3 C-1.34 3 -0.68 3 0 3 C0 2.01 0 1.02 0 0 Z " fill="#ECDACF" transform="translate(260,49)"/>
<path d="M0 0 C0.66 0 1.32 0 2 0 C4.42393646 7.57480143 2.44019827 13.22710966 -1 20 C-2.32 19.67 -3.64 19.34 -5 19 C-4.71125 18.360625 -4.4225 17.72125 -4.125 17.0625 C-2.91362387 13.76486498 -2.17393332 10.5200407 -1.46484375 7.0859375 C-1 5 -1 5 0 2 C0 1.34 0 0.68 0 0 Z " fill="#EAD7CE" transform="translate(182,58)"/>
<path d="M0 0 C0.94875 0.309375 1.8975 0.61875 2.875 0.9375 C7.50938425 2.27928271 12.20552041 2.63342007 17 3 C13.54337669 5.30441554 12.05142119 5.25860135 8 5 C7.34 4.67 6.68 4.34 6 4 C6 4.66 6 5.32 6 6 C10.62 5.67 15.24 5.34 20 5 C19.67 5.66 19.34 6.32 19 7 C12.26591212 8.54953925 7.02356111 8.34642284 1 5 C1 4.01 1 3.02 1 2 C0.67 1.34 0.34 0.68 0 0 Z " fill="#E5D1C5" transform="translate(405,87)"/>
<path d="M0 0 C2 1 2 1 3 2 C2.84375 3.88671875 2.84375 3.88671875 2 6 C-2.50528547 9.47729374 -7.35421045 11.46892985 -13.0625 10.9375 C-15.28515625 10.58984375 -15.28515625 10.58984375 -17 10 C-17.33 9.34 -17.66 8.68 -18 8 C-14.37 8 -10.74 8 -7 8 C-7.33 7.01 -7.66 6.02 -8 5 C-6.35 4.67 -4.7 4.34 -3 4 C-2.67 4.66 -2.34 5.32 -2 6 C-1.855625 5.195625 -1.71125 4.39125 -1.5625 3.5625 C-1 1 -1 1 0 0 Z " fill="#E7D3C7" transform="translate(297,84)"/>
<path d="M0 0 C0.66 0 1.32 0 2 0 C2.88835027 9.39348151 2.88835027 9.39348151 0.98046875 12.84375 C-2.05384842 15.71924616 -4.88217108 16.27465328 -8.875 16.3125 C-10.25164591 16.23299075 -11.62790336 16.13720966 -13 16 C-12.67 15.34 -12.34 14.68 -12 14 C-10.906875 13.690625 -9.81375 13.38125 -8.6875 13.0625 C-4.25336369 11.90544385 -4.25336369 11.90544385 -1 9 C-0.37182776 6.00819664 -0.12792157 3.05092951 0 0 Z " fill="#E9D8D1" transform="translate(425,68)"/>
<path d="M0 0 C0.33 0.99 0.66 1.98 1 3 C2.32 2.34 3.64 1.68 5 1 C-2 8 -2 8 -4.8203125 8.1953125 C-5.91085938 8.17210938 -7.00140625 8.14890625 -8.125 8.125 C-9.22070312 8.10695313 -10.31640625 8.08890625 -11.4453125 8.0703125 C-12.28835937 8.04710938 -13.13140625 8.02390625 -14 8 C-11.20021154 5.20021154 -7.98306412 4.3657913 -4.3125 3 C-1.86423873 2.10981497 -1.86423873 2.10981497 0 0 Z " fill="#E3CFC4" transform="translate(178,78)"/>
<path d="M0 0 C2.97 0 5.94 0 9 0 C8.67 1.65 8.34 3.3 8 5 C2.06 5.495 2.06 5.495 -4 6 C-4 5.34 -4 4.68 -4 4 C-2.68 3.34 -1.36 2.68 0 2 C0 1.34 0 0.68 0 0 Z " fill="#ECD8CC" transform="translate(227,36)"/>
<path d="M0 0 C5.53846154 0.61538462 5.53846154 0.61538462 7.875 2.5625 C8.431875 3.2740625 8.431875 3.2740625 9 4 C8.01 5.485 8.01 5.485 7 7 C5.68 6.34 4.36 5.68 3 5 C4.05270463 6.15811388 4.05270463 6.15811388 6 7 C5.67 7.66 5.34 8.32 5 9 C2.69 8.01 0.38 7.02 -2 6 C-1.34 4.02 -0.68 2.04 0 0 Z " fill="#EFDED5" transform="translate(289,57)"/>
<path d="M0 0 C0.66 0 1.32 0 2 0 C2 1.32 2 2.64 2 4 C6.21912747 3.5205537 8.79663178 2.83374881 12 0 C13.32 0.66 14.64 1.32 16 2 C14.23628182 3.03307771 12.46374967 4.05112049 10.6875 5.0625 C9.20830078 5.91521484 9.20830078 5.91521484 7.69921875 6.78515625 C5 8 5 8 2 7 C0.35179805 4.39757586 0 3.13751221 0 0 Z " fill="#67B8B4" transform="translate(51,118)"/>
<path d="M0 0 C-0.99 0.33 -1.98 0.66 -3 1 C-3 4.96 -3 8.92 -3 13 C-7.04444444 6.93333333 -7.04444444 6.93333333 -6.875 3.375 C-6 1 -6 1 -4.0625 -0.375 C-2 -1 -2 -1 0 0 Z M0 3 C0.66 3.99 1.32 4.98 2 6 C1.01 6.33 0.02 6.66 -1 7 C-1.66 6.67 -2.32 6.34 -3 6 C-2 4 -2 4 0 3 Z " fill="#6BB7B6" transform="translate(54,105)"/>
<path d="M0 0 C0.33 0 0.66 0 1 0 C1.19335938 1.10859375 1.38671875 2.2171875 1.5859375 3.359375 C1.84863489 4.82297476 2.11167367 6.28651327 2.375 7.75 C2.50132812 8.47960937 2.62765625 9.20921875 2.7578125 9.9609375 C3.42633254 13.63779773 4.23473167 16.71506589 6 20 C6 20.99 6 21.98 6 23 C5.34 23 4.68 23 4 23 C-0.07702031 14.91649607 -1.78274626 8.96668414 0 0 Z " fill="#EEE1D9" transform="translate(198,60)"/>
<path d="M0 0 C3 1 3 1 4.38671875 3.21484375 C4.81597656 4.11332031 5.24523437 5.01179688 5.6875 5.9375 C6.12449219 6.83339844 6.56148437 7.72929688 7.01171875 8.65234375 C8 11 8 11 8 13 C6.68 12.67 5.36 12.34 4 12 C4 11.01 4 10.02 4 9 C3.01 9 2.02 9 1 9 C0.67 8.01 0.34 7.02 0 6 C0.66 5.01 1.32 4.02 2 3 C0.68 2.34 -0.64 1.68 -2 1 C-1.34 0.67 -0.68 0.34 0 0 Z " fill="#6AB9B6" transform="translate(17,41)"/>
<path d="M0 0 C0.33 0 0.66 0 1 0 C1.29296875 6.0546875 1.29296875 6.0546875 1 8 C-2 10 -2 10 -5 9.625 C-5.99 9.41875 -6.98 9.2125 -8 9 C-8.99 9 -9.98 9 -11 9 C-13.1875 7 -13.1875 7 -15 5 C-12.6875 4.3125 -12.6875 4.3125 -10 4 C-9.525625 4.495 -9.05125 4.99 -8.5625 5.5 C-8.046875 5.995 -7.53125 6.49 -7 7 C-3.85078091 6.76716851 -3.85078091 6.76716851 -1 6 C-0.67 4.02 -0.34 2.04 0 0 Z " fill="#EBDED4" transform="translate(291,74)"/>
<path d="M0 0 C0.5775 0.21785156 1.155 0.43570313 1.75 0.66015625 C0.43 0.99015625 -0.89 1.32015625 -2.25 1.66015625 C-1.92 2.65015625 -1.59 3.64015625 -1.25 4.66015625 C-6 6.66015625 -6 6.66015625 -8.25 6.66015625 C-9.63938077 8.62163499 -10.9760411 10.62182201 -12.25 12.66015625 C-12.91 12.33015625 -13.57 12.00015625 -14.25 11.66015625 C-11.49620409 6.84101341 -6.25105506 -0.94416977 0 0 Z " fill="#E8D4CA" transform="translate(224.25,43.33984375)"/>
<path d="M0 0 C3.63 0.33 7.26 0.66 11 1 C9.02 3.97 9.02 3.97 7 7 C6 5 6 5 6 4 C5.01 4.495 5.01 4.495 4 5 C3.67 4.34 3.34 3.68 3 3 C1.68 4.65 0.36 6.3 -1 8 C-1.66 7.67 -2.32 7.34 -3 7 C-2.505 6.401875 -2.01 5.80375 -1.5 5.1875 C0.28276418 3.02970006 0.28276418 3.02970006 0 0 Z " fill="#E6D4CA" transform="translate(482,32)"/>
<path d="M0 0 C-0.99 0 -1.98 0 -3 0 C-3 0.66 -3 1.32 -3 2 C-2.01 2.33 -1.02 2.66 0 3 C-3.3 3.33 -6.6 3.66 -10 4 C-10 3.01 -10 2.02 -10 1 C-10.99 0.34 -11.98 -0.32 -13 -1 C-11.58566794 -1.2236337 -10.16832382 -1.42826476 -8.75 -1.625 C-7.56664062 -1.79902344 -7.56664062 -1.79902344 -6.359375 -1.9765625 C-3.67847541 -2.00319395 -2.27305911 -1.36592084 0 0 Z " fill="#F9E5D9" transform="translate(238,88)"/>
<path d="M0 0 C0.99 0.33 1.98 0.66 3 1 C-1.95 7.435 -1.95 7.435 -7 14 C-7.33 12.68 -7.66 11.36 -8 10 C-6.34765625 7.421875 -6.34765625 7.421875 -4.0625 4.75 C-2.93521484 3.41195312 -2.93521484 3.41195312 -1.78515625 2.046875 C-1.19605469 1.37140625 -0.60695313 0.6959375 0 0 Z " fill="#F1E0D9" transform="translate(480,34)"/>
<path d="M0 0 C1.22589844 0.01353516 1.22589844 0.01353516 2.4765625 0.02734375 C3.41628906 0.04474609 3.41628906 0.04474609 4.375 0.0625 C4.375 0.3925 4.375 0.7225 4.375 1.0625 C0.745 1.7225 -2.885 2.3825 -6.625 3.0625 C-6.625 4.0525 -6.625 5.0425 -6.625 6.0625 C-7.615 6.0625 -8.605 6.0625 -9.625 6.0625 C-9.955 9.0325 -10.285 12.0025 -10.625 15.0625 C-10.955 15.0625 -11.285 15.0625 -11.625 15.0625 C-12.29464286 7.29464286 -12.29464286 7.29464286 -9.25 3.625 C-5.88056423 0.33578889 -4.55111561 -0.06501594 0 0 Z " fill="#6EB6B3" transform="translate(65.625,53.9375)"/>
<path d="M0 0 C-1.32 0.33 -2.64 0.66 -4 1 C-4 1.66 -4 2.32 -4 3 C-10.93 3 -17.86 3 -25 3 C-25 2.34 -25 1.68 -25 1 C-23.86820312 1.01160156 -22.73640625 1.02320312 -21.5703125 1.03515625 C-20.08854331 1.04453454 -18.60677235 1.0536347 -17.125 1.0625 C-16.37863281 1.07087891 -15.63226563 1.07925781 -14.86328125 1.08789062 C-9.66919914 1.11128739 -5.24830071 -0.09719075 0 0 Z " fill="#ECD9CF" transform="translate(388,86)"/>
<path d="M0 0 C0.66 0 1.32 0 2 0 C1.34 1.65 0.68 3.3 0 5 C0.66 5 1.32 5 2 5 C1.67 5.99 1.34 6.98 1 8 C0.34 8 -0.32 8 -1 8 C-1.33 8.99 -1.66 9.98 -2 11 C-2.33 10.01 -2.66 9.02 -3 8 C-3.99 8.495 -3.99 8.495 -5 9 C-3.7580393 5.56072421 -2.44259716 2.74792181 0 0 Z " fill="#ECD6CA" transform="translate(475,54)"/>
<path d="M0 0 C0 0.66 0 1.32 0 2 C-2.52475462 3.26237731 -4.31200466 3.09856404 -7.125 3.0625 C-8.03507813 3.05347656 -8.94515625 3.04445313 -9.8828125 3.03515625 C-10.58148438 3.02355469 -11.28015625 3.01195313 -12 3 C-12 3.66 -12 4.32 -12 5 C-15 4 -15 4 -17 1 C-16.00419922 1.01740234 -16.00419922 1.01740234 -14.98828125 1.03515625 C-9.89877598 1.08716579 -4.9783608 0 0 0 Z " fill="#EAD5CA" transform="translate(240,93)"/>
<path d="M0 0 C0.66 0 1.32 0 2 0 C2 0.66 2 1.32 2 2 C3.0725 2.103125 4.145 2.20625 5.25 2.3125 C8.85820872 2.97400493 10.36395023 3.57483421 13 6 C12.34 6 11.68 6 11 6 C11 6.66 11 7.32 11 8 C6.89160936 6.54997977 3.49655387 4.6020866 0 2 C0 1.34 0 0.68 0 0 Z " fill="#6DBCB7" transform="translate(31,87)"/>
<path d="M0 0 C0.66 0.33 1.32 0.66 2 1 C2 3.97 2 6.94 2 10 C2.66 10 3.32 10 4 10 C3.67 11.65 3.34 13.3 3 15 C2.01 15 1.02 15 0 15 C-0.33 14.67 -0.66 14.34 -1 14 C-0.66666667 12.66666667 -0.33333333 11.33333333 0 10 C0.06624507 8.25113019 0.08552595 6.49997252 0.0625 4.75 C0.05347656 3.85796875 0.04445313 2.9659375 0.03515625 2.046875 C0.02355469 1.37140625 0.01195312 0.6959375 0 0 Z " fill="#F5E1D4" transform="translate(297,71)"/>
<path d="M0 0 C0.33 0 0.66 0 1 0 C0.979375 1.2375 0.95875 2.475 0.9375 3.75 C0.92924988 6.09303507 0.99236914 7.96947656 1.5625 10.25 C2.11110164 12.44440658 1.68325879 13.87430598 1 16 C0.34 16 -0.32 16 -1 16 C-1.02685095 13.52076199 -1.04676547 11.0418116 -1.0625 8.5625 C-1.07506836 7.50192383 -1.07506836 7.50192383 -1.08789062 6.41992188 C-1.09653588 4.61306441 -1.05220011 2.80612397 -1 1 C-0.67 0.67 -0.34 0.34 0 0 Z " fill="#EDDED6" transform="translate(440,55)"/>
<path d="M0 0 C0.66 0.33 1.32 0.66 2 1 C1.34 2.65 0.68 4.3 0 6 C1.32 6.33 2.64 6.66 4 7 C3.67 7.99 3.34 8.98 3 10 C3 10.99 3 11.98 3 13 C0.25207517 9.59780735 -3 5.51535412 -3 1 C-2.01 0.67 -1.02 0.34 0 0 Z " fill="#69B2AF" transform="translate(3,47)"/>
<path d="M0 0 C0.66 0.33 1.32 0.66 2 1 C-1.222107 4.8665284 -4.14922412 5.88059018 -9 7 C-9.33 6.01 -9.66 5.02 -10 4 C-9.67 3.34 -9.34 2.68 -9 2 C-8.2575 2.226875 -7.515 2.45375 -6.75 2.6875 C-3.94085007 3.29476698 -3.94085007 3.29476698 -1.6875 1.5625 C-1.130625 1.046875 -0.57375 0.53125 0 0 Z " fill="#67B4B2" transform="translate(72,92)"/>
<path d="M0 0 C3.96 0.33 7.92 0.66 12 1 C12 1.66 12 2.32 12 3 C10.02 3.99 10.02 3.99 8 5 C7.67 4.34 7.34 3.68 7 3 C3.23312136 3 2.08809695 3.23537317 -1 5 C-0.67 3.35 -0.34 1.7 0 0 Z " fill="#F9E5D9" transform="translate(284,41)"/>
<path d="M0 0 C0.99 2.31 1.98 4.62 3 7 C2.278125 6.690625 1.55625 6.38125 0.8125 6.0625 C-1.80307309 5.07439461 -4.25118982 4.4712246 -7 4 C-7 3.34 -7 2.68 -7 2 C-4.35261084 0.5393715 -3.10551666 0 0 0 Z " fill="#64B4B3" transform="translate(68,31)"/>
<path d="M0 0 C0.66 0.33 1.32 0.66 2 1 C2 1.66 2 2.32 2 3 C3.32 3.66 4.64 4.32 6 5 C5.67 5.66 5.34 6.32 5 7 C4.01 6.34 3.02 5.68 2 5 C2.33 5.99 2.66 6.98 3 8 C2.01 7.67 1.02 7.34 0 7 C0 6.34 0 5.68 0 5 C-0.66 5 -1.32 5 -2 5 C-2 4.34 -2 3.68 -2 3 C-1.34 3 -0.68 3 0 3 C0 2.01 0 1.02 0 0 Z " fill="#F0D8CA" transform="translate(211,79)"/>
<path d="M0 0 C0.66 0.66 1.32 1.32 2 2 C5.08347826 2.16681109 5.08347826 2.16681109 8 2 C8 2.66 8 3.32 8 4 C5.36 4.99 2.72 5.98 0 7 C-1.33332095 4.3333581 -0.67102033 2.83319697 0 0 Z " fill="#F1DCD0" transform="translate(162,36)"/>
<path d="M0 0 C1.4391134 0.28359887 2.87625518 0.57721399 4.3125 0.875 C5.11300781 1.03742188 5.91351563 1.19984375 6.73828125 1.3671875 C9 2 9 2 12 4 C8.69564916 5.12377697 6.9493138 4.89554742 3.75 3.5625 C3.04359375 3.27503906 2.3371875 2.98757812 1.609375 2.69140625 C1.07828125 2.46324219 0.5471875 2.23507813 0 2 C0 1.34 0 0.68 0 0 Z " fill="#F6E4DD" transform="translate(215,93)"/>
<path d="M0 0 C0 0.66 0 1.32 0 2 C-2.40545638 3.20272819 -3.94996953 3.10071472 -6.625 3.0625 C-7.85089844 3.04896484 -7.85089844 3.04896484 -9.1015625 3.03515625 C-10.04128906 3.01775391 -10.04128906 3.01775391 -11 3 C-10 1 -10 1 -6.625 -0.1875 C-3 -1 -3 -1 0 0 Z " fill="#EEDED8" transform="translate(423,81)"/>
<path d="M0 0 C1.12894876 0.93274109 2.25300876 1.87140122 3.375 2.8125 C4.00148438 3.33457031 4.62796875 3.85664062 5.2734375 4.39453125 C7 6 7 6 9 9 C7.02 9 5.04 9 3 9 C2 6 1 3 0 0 Z " fill="#69B3B2" transform="translate(42,77)"/>
<path d="M0 0 C0.66 0 1.32 0 2 0 C3.17571451 3.67410785 3.07366746 7.16929183 3 11 C2.01 10.67 1.02 10.34 0 10 C0 6.7 0 3.4 0 0 Z " fill="#F5E1DB" transform="translate(249,57)"/>
<path d="M0 0 C0.66 0.33 1.32 0.66 2 1 C0.515 2.485 0.515 2.485 -1 4 C-0.67 4.66 -0.34 5.32 0 6 C-6.75 7.125 -6.75 7.125 -9 6 C-6.03 4.02 -3.06 2.04 0 0 Z " fill="#E3D2C7" transform="translate(250,87)"/>
<path d="M0 0 C1.32 0 2.64 0 4 0 C4 1.65 4 3.3 4 5 C4.99 4.67 5.98 4.34 7 4 C7 4.66 7 5.32 7 6 C4.69 6 2.38 6 0 6 C0 4.02 0 2.04 0 0 Z " fill="#E4D3CB" transform="translate(162,77)"/>
<path d="M0 0 C2.125 0.9375 2.125 0.9375 4 2 C3.01 2.66 2.02 3.32 1 4 C2.32 4.33 3.64 4.66 5 5 C4.67 5.66 4.34 6.32 4 7 C1.69 6.01 -0.62 5.02 -3 4 C-2.67 3.01 -2.34 2.02 -2 1 C-1.34 0.67 -0.68 0.34 0 0 Z " fill="#ECD7CB" transform="translate(290,59)"/>
<path d="M0 0 C1.32 0 2.64 0 4 0 C4 0.99 4 1.98 4 3 C6.97 3.495 6.97 3.495 10 4 C10 4.33 10 4.66 10 5 C7.03 5 4.06 5 1 5 C0.67 3.35 0.34 1.7 0 0 Z " fill="#ECD8CB" transform="translate(224,88)"/>
<path d="M0 0 C2.97 0.99 5.94 1.98 9 3 C6 5 6 5 3 6 C0 1.125 0 1.125 0 0 Z " fill="#6CB8B3" transform="translate(104,80)"/>
<path d="M0 0 C2.63326457 2.63326457 2.71180635 4.32553101 3 8 C2.0625 10.875 2.0625 10.875 1 13 C0.34 12.01 -0.32 11.02 -1 10 C-0.34 10 0.32 10 1 10 C0.67 6.7 0.34 3.4 0 0 Z " fill="#6EB7B3" transform="translate(75,59)"/>
<path d="M0 0 C0.66 0 1.32 0 2 0 C2 1.32 2 2.64 2 4 C4.475 4.99 4.475 4.99 7 6 C5.02 6.99 5.02 6.99 3 8 C0 3.375 0 3.375 0 0 Z " fill="#6FB1AE" transform="translate(51,118)"/>
<path d="M0 0 C0.66 0 1.32 0 2 0 C1.74438677 2.3431213 1.40729228 4.67843403 1 7 C0.01 7.495 0.01 7.495 -1 8 C-2 6 -2 6 -2 3 C-1.34 2.01 -0.68 1.02 0 0 Z " fill="#E8D6CE" transform="translate(481,51)"/>
<path d="M0 0 C0.33 0 0.66 0 1 0 C0.67 3.3 0.34 6.6 0 10 C-0.66 9.67 -1.32 9.34 -2 9 C-2.25 3.375 -2.25 3.375 0 0 Z " fill="#F0E1D7" transform="translate(281,45)"/>
<path d="M0 0 C2.97 0.495 2.97 0.495 6 1 C6 1.99 6 2.98 6 4 C5.01 4.33 4.02 4.66 3 5 C2.01 4.34 1.02 3.68 0 3 C0 2.01 0 1.02 0 0 Z " fill="#E9D8CF" transform="translate(285,42)"/>
<path d="M0 0 C0.66 0 1.32 0 2 0 C2.99 2.97 3.98 5.94 5 9 C4.34 9 3.68 9 3 9 C0 3.375 0 3.375 0 0 Z " fill="#ECD7CA" transform="translate(206,70)"/>
<path d="M0 0 C0 3 0 3 -2.5 5.6875 C-3.325 6.450625 -4.15 7.21375 -5 8 C-5 7.01 -5 6.02 -5 5 C-4.34 5 -3.68 5 -3 5 C-3 3.68 -3 2.36 -3 1 C-2.01 0.67 -1.02 0.34 0 0 Z " fill="#70BBB8" transform="translate(95,91)"/>
<path d="M0 0 C0.33 0.66 0.66 1.32 1 2 C0.34 2 -0.32 2 -1 2 C-1 2.66 -1 3.32 -1 4 C-2.75 4.625 -2.75 4.625 -5 5 C-6.32 4.34 -7.64 3.68 -9 3 C-6.03 2.01 -3.06 1.02 0 0 Z " fill="#E6D9D3" transform="translate(241,80)"/>
<path d="M0 0 C0.66 0 1.32 0 2 0 C3.125 3.75 3.125 3.75 2 6 C0.68 5.67 -0.64 5.34 -2 5 C-1.34 3.35 -0.68 1.7 0 0 Z " fill="#E5D2CC" transform="translate(179,72)"/>
<path d="M0 0 C1.875 0.625 1.875 0.625 4 2 C5.25 5.125 5.25 5.125 6 8 C3.69 6.02 1.38 4.04 -1 2 C-0.67 1.34 -0.34 0.68 0 0 Z " fill="#F8E5D8" transform="translate(295,38)"/>
<path d="M0 0 C0 0.66 0 1.32 0 2 C-3.465 3.485 -3.465 3.485 -7 5 C-7 4.01 -7 3.02 -7 2 C-4.35261084 0.5393715 -3.10551666 0 0 0 Z " fill="#F4E6DD" transform="translate(219,34)"/>
<path d="M0 0 C0.33 0 0.66 0 1 0 C1.125 6.75 1.125 6.75 0 9 C-0.66 9 -1.32 9 -2 9 C-1.51421457 5.87709365 -1.0013988 3.00419641 0 0 Z " fill="#EADAD4" transform="translate(439,73)"/>
<path d="M0 0 C2.375 0.1875 2.375 0.1875 5 1 C6.3125 3.5625 6.3125 3.5625 7 6 C3.31197956 4.77065985 2.27643027 3.06140622 0 0 Z " fill="#F0E2D7" transform="translate(474,70)"/>
<path d="" fill="#E5E5E5" transform="translate(0,0)"/>
</svg>
